<svg width="235" height="178" viewBox="0 0 235 178" fill="none" xmlns="http://www.w3.org/2000/svg">
<path d="M207.992 132.1C207.992 157.45 166.435 178 115.172 178C63.9085 178 22.3514 157.45 22.3514 132.1C22.3514 106.75 63.9085 86.1993 115.172 86.1993C166.435 86.1993 207.992 106.75 207.992 132.1Z" fill="#727272"/>
<path d="M235 108.449C235 140.502 182.393 166.486 117.5 166.486C52.6065 166.486 0 140.502 0 108.449C0 76.3965 52.6065 50.4126 117.5 50.4126C182.393 50.4126 235 76.3965 235 108.449Z" fill="#F0EFED"/>
<path fill-rule="evenodd" clip-rule="evenodd" d="M15.9575 125.038C54.4312 140.143 91.9053 136.301 99.6582 116.458C106.53 98.8689 87.7451 74.6119 56.5952 58.8078C22.6661 68.9852 0 87.4098 0 108.449C0 111.904 0.611148 115.288 1.78296 118.577C6.25452 120.92 10.993 123.089 15.9575 125.038Z" fill="#EAE9E7"/>
<path fill-rule="evenodd" clip-rule="evenodd" d="M217.702 37.0346C223.233 37.9279 227.792 41.1638 231.169 46.1896C234.755 51.5249 235.672 57.3432 234.369 63.0629C233.131 68.4986 229.993 73.4434 226.212 77.7805C218.677 86.4255 206.986 94.4476 195.336 101.174C183.545 107.983 171.184 113.806 161.82 117.913C157.127 119.971 153.16 121.61 150.359 122.736C148.958 123.3 147.847 123.736 147.082 124.033C146.699 124.182 146.403 124.295 146.199 124.373C146.097 124.412 146.019 124.442 145.964 124.462L145.901 124.486L145.877 124.495C145.875 124.496 145.874 124.497 143.421 117.941C140.969 111.385 140.968 111.385 140.968 111.385L140.969 111.384L141.026 111.363C141.069 111.347 141.137 111.321 141.227 111.287C141.407 111.218 141.68 111.113 142.038 110.974C142.755 110.696 143.812 110.281 145.157 109.74C147.675 108.727 151.196 107.275 155.363 105.458C154.86 105.145 154.296 104.795 153.666 104.404C147.729 100.716 147.729 100.714 147.73 100.713L147.776 100.64C147.804 100.594 147.845 100.529 147.898 100.444C148.003 100.276 148.157 100.031 148.357 99.7157C148.756 99.0855 149.338 98.1739 150.084 97.0295C151.575 94.7416 153.72 91.5173 156.356 87.7451C161.609 80.2267 168.889 70.4181 176.87 61.4931C184.699 52.7377 193.8 44.1432 202.753 39.8094C207.287 37.6144 212.446 36.1856 217.702 37.0346ZM163.762 101.684C171.402 98.145 180.067 93.8301 188.363 89.04C199.685 82.5024 209.725 75.4125 215.693 68.5661C218.664 65.1576 220.222 62.2619 220.75 59.9458C221.213 57.9139 220.965 56.0691 219.584 54.0137C217.994 51.6488 216.587 51.0386 215.48 50.8598C214.098 50.6366 211.947 50.9096 208.827 52.4197C202.472 55.496 194.887 62.3248 187.272 70.8402C179.809 79.1862 172.886 88.4961 167.798 95.7786C166.267 97.969 164.91 99.9656 163.762 101.684Z" fill="#C4C0C2"/>
<path fill-rule="evenodd" clip-rule="evenodd" d="M231.169 46.1896C227.792 41.1638 223.233 37.9279 217.702 37.0346C212.446 36.1856 207.287 37.6144 202.753 39.8094C193.8 44.1432 184.699 52.7377 176.87 61.4931C171.458 67.5445 166.369 74.002 162.016 79.8765L203.794 47.1823C210.328 42.0691 219.76 43.2336 224.861 49.7834C229.962 56.3332 228.8 65.7879 222.266 70.9011L162.669 117.539C171.923 113.457 183.898 107.779 195.336 101.174C206.986 94.4476 218.677 86.4255 226.212 77.7805C229.993 73.4434 233.131 68.4986 234.369 63.0629C235.672 57.3432 234.755 51.5249 231.169 46.1896ZM154.75 120.937C150.645 121.405 146.427 120.165 143.202 117.353C143.273 117.543 143.346 117.739 143.421 117.941C145.874 124.497 145.875 124.496 145.877 124.495L145.883 124.493L145.901 124.486L145.964 124.462C146.019 124.442 146.097 124.412 146.199 124.373C146.403 124.295 146.699 124.182 147.082 124.033C147.847 123.736 148.958 123.3 150.359 122.736C151.605 122.235 153.082 121.633 154.75 120.937Z" fill="#E3E1E2"/>
<path d="M147.147 128.521C147.147 134.364 132.345 139.101 114.085 139.101C95.8259 139.101 81.0238 134.364 81.0238 128.521C81.0238 122.678 95.8259 117.941 114.085 117.941C132.345 117.941 147.147 122.678 147.147 128.521Z" fill="#8D8D8D"/>
<path d="M195.264 33.4528C195.264 44.3389 195.264 70.7955 177.569 99.8916C159.874 128.988 133.462 138.012 115.327 138.012C95.0278 138.012 76.3672 133.5 55.568 99.8916C34.7688 66.2832 35.3897 43.4333 35.3897 33.4528C35.3897 14.9773 71.1788 0 115.327 0C159.475 0 195.264 14.9773 195.264 33.4528Z" fill="#C6C4C3"/>
<path d="M195.264 33.4528C195.264 51.9283 159.475 66.9056 115.327 66.9056C71.1788 66.9056 35.3896 51.9283 35.3896 33.4528C35.3896 14.9773 71.1788 0 115.327 0C159.475 0 195.264 14.9773 195.264 33.4528Z" fill="#F7F3EF"/>
<path d="M191.849 32.6748C191.849 50.0332 157.45 64.1049 115.016 64.1049C72.5829 64.1049 38.1836 50.0332 38.1836 32.6748C38.1836 15.3165 72.5829 1.24475 115.016 1.24475C157.45 1.24475 191.849 15.3165 191.849 32.6748Z" fill="#E7E2DF"/>
<path fill-rule="evenodd" clip-rule="evenodd" d="M47.3864 85.1049C49.6572 89.7723 52.3574 94.7038 55.568 99.8916C76.3673 133.5 95.0279 138.012 115.327 138.012C133.462 138.012 159.875 128.988 177.569 99.8916C180.538 95.0104 183.008 90.2034 185.064 85.5318C164.181 88.5742 141.443 90.2447 117.655 90.2447C92.7771 90.2447 69.0477 88.4176 47.3864 85.1049Z" fill="#CDCCCC"/>
<path d="M67.6751 105.649C67.6751 106.938 66.6327 107.983 65.3468 107.983C64.061 107.983 63.0186 106.938 63.0186 105.649C63.0186 104.36 64.061 103.315 65.3468 103.315C66.6327 103.315 67.6751 104.36 67.6751 105.649Z" fill="white"/>
<path fill-rule="evenodd" clip-rule="evenodd" d="M193.189 41.0595C194.546 38.6158 195.264 36.0694 195.264 33.4528C195.264 14.9773 159.475 0 115.327 0C71.1788 0 35.3896 14.9773 35.3896 33.4528C35.3896 36.0028 36.0714 38.4862 37.3629 40.8728C55.6872 24.4847 83.7347 14.0035 115.172 14.0035C146.728 14.0035 174.869 24.5644 193.189 41.0595Z" fill="#F4EEE9"/>
<path fill-rule="evenodd" clip-rule="evenodd" d="M36.0542 37.7859C36.3771 38.8308 36.8152 39.8605 37.363 40.8728C38.1795 40.1425 39.0154 39.424 39.8699 38.7176C38.5811 38.4314 37.3088 38.1205 36.0542 37.7859ZM124.912 14.3418C152.482 16.2674 176.777 26.2821 193.189 41.0595C194.546 38.6158 195.264 36.0694 195.264 33.4528C195.264 17.2472 167.729 3.73295 131.169 0.656906C130.106 5.49542 127.963 10.0956 124.912 14.3418Z" fill="#EFE9E4"/>
<path fill-rule="evenodd" clip-rule="evenodd" d="M166.017 115.056C147.279 117.434 127.185 118.724 106.279 118.724C93.2501 118.724 80.5359 118.223 68.2688 117.269C84.1793 135.178 99.2385 138.012 115.327 138.012C129.828 138.012 149.62 132.243 166.017 115.056Z" fill="#D9D9D9"/>
<path fill-rule="evenodd" clip-rule="evenodd" d="M55.3444 82.2144C55.3444 82.2144 55.3444 82.2144 55.3444 82.2144L55.3437 82.2116C55.3436 82.2114 55.3436 82.2113 55.3437 82.2116C55.0332 80.9624 53.7719 80.2012 52.5249 80.5107C51.2767 80.8206 50.5154 82.0861 50.8246 83.3373L53.0846 82.7762C50.8246 83.3373 50.8247 83.3377 50.8248 83.3381L50.8255 83.341L50.8267 83.346L50.8302 83.3599C50.833 83.3709 50.8367 83.3853 50.8413 83.4031C50.8505 83.4387 50.8634 83.4878 50.8802 83.5499C50.9138 83.674 50.963 83.85 51.0293 84.0738C51.1619 84.5214 51.3632 85.1607 51.6457 85.9586C52.2104 87.5536 53.1012 89.7875 54.4189 92.3942C55.717 94.9617 56.9501 97.1121 57.8606 98.6237C58.3162 99.38 58.692 99.978 58.956 100.39C59.0881 100.596 59.1922 100.756 59.2645 100.866C59.3007 100.921 59.3289 100.963 59.3486 100.993L59.3718 101.028L59.3785 101.038L59.3817 101.042C59.3818 101.043 59.3819 101.043 61.2209 99.7971L59.382 101.043C60.1019 102.111 61.5492 102.392 62.6146 101.67C63.68 100.948 63.9601 99.4976 63.2405 98.4296L63.2403 98.4293L63.2372 98.4247L63.2211 98.4007C63.2062 98.3783 63.1829 98.3432 63.1517 98.2958C63.0894 98.201 62.9955 98.0572 62.8741 97.8676C62.6312 97.4885 62.2783 96.9271 61.8468 96.2108C60.9831 94.7771 59.8085 92.729 58.5726 90.2841C57.3563 87.8783 56.5415 85.8308 56.0341 84.3975C55.7805 83.6812 55.6042 83.1196 55.4931 82.7448C55.4376 82.5574 55.3985 82.4169 55.3742 82.3273C55.362 82.2825 55.3536 82.2504 55.3488 82.2315L55.3441 82.2132C55.3439 82.2126 55.3438 82.2122 55.3438 82.2119C55.3437 82.2119 55.3437 82.2116 55.3437 82.2116M55.3444 82.2144C55.3444 82.2144 55.3444 82.2144 55.3444 82.2144V82.2144Z" fill="white"/>
<path fill-rule="evenodd" clip-rule="evenodd" d="M46.9308 47.2531C62.4372 40.8603 87.2312 36.7203 115.172 36.7203C142.99 36.7203 167.69 40.8242 183.209 47.1695C170.4 57.2328 144.67 64.1049 115.017 64.1049C85.445 64.1049 59.7753 57.2709 46.9308 47.2531Z" fill="#EBE7E4"/>
</svg>
